<svg xmlns="http://www.w3.org/2000/svg" viewBox="0 0 1280 720" width="1280" height="720">
  <rect width="1280" height="720" fill="#f5f9ff"/><rect x="52" y="42" width="1176" height="636" rx="28" fill="#fff" stroke="#dbe6f6" stroke-width="2"/>
  <g font-family="Arial, PingFang SC, sans-serif"><text x="96" y="108" fill="#17335c" font-size="32" font-weight="700">Chatbox · 添加模型提供方</text><text x="96" y="147" fill="#60728d" font-size="19">移动端界面示意，按钮位置可能随版本调整</text>
  <rect x="116" y="188" width="310" height="430" rx="42" fill="#f9fbff" stroke="#9fb6d9" stroke-width="4"/><rect x="226" y="205" width="92" height="12" rx="6" fill="#c6d3e6"/><text x="154" y="267" fill="#17335c" font-size="23" font-weight="700">菜单</text><rect x="150" y="302" width="242" height="62" rx="14" fill="#eef5ff"/><text x="184" y="340" fill="#235bd6" font-size="20" font-weight="700">设置</text><rect x="150" y="382" width="242" height="62" rx="14" fill="#fff" stroke="#d8e3f2"/><text x="184" y="420" fill="#60728d" font-size="20">对话</text><circle cx="364" cy="333" r="22" fill="#235bd6"/><text x="357" y="341" fill="#fff" font-size="18" font-weight="700">1</text>
  <path d="M460 402H524" stroke="#7ca3e7" stroke-width="7" stroke-linecap="round"/><path d="M510 387L528 402L510 417" fill="none" stroke="#7ca3e7" stroke-width="5"/>
  <rect x="556" y="188" width="310" height="430" rx="42" fill="#f9fbff" stroke="#9fb6d9" stroke-width="4"/><rect x="666" y="205" width="92" height="12" rx="6" fill="#c6d3e6"/><text x="594" y="267" fill="#17335c" font-size="23" font-weight="700">设置</text><rect x="590" y="302" width="242" height="72" rx="14" fill="#eef5ff" stroke="#235bd6" stroke-width="3"/><text x="612" y="345" fill="#235bd6" font-size="19" font-weight="700">模型提供方</text><rect x="590" y="392" width="242" height="58" rx="14" fill="#fff" stroke="#d8e3f2"/><text x="612" y="428" fill="#60728d" font-size="18">显示</text><circle cx="804" cy="338" r="22" fill="#235bd6"/><text x="797" y="346" fill="#fff" font-size="18" font-weight="700">2</text>
  <path d="M900 402H964" stroke="#7ca3e7" stroke-width="7" stroke-linecap="round"/><path d="M950 387L968 402L950 417" fill="none" stroke="#7ca3e7" stroke-width="5"/>
  <rect x="996" y="188" width="168" height="430" rx="42" fill="#f9fbff" stroke="#9fb6d9" stroke-width="4"/><text x="1028" y="267" fill="#17335c" font-size="22" font-weight="700">提供方</text><circle cx="1080" cy="398" r="44" fill="#235bd6"/><path d="M1080 375V421M1057 398H1103" stroke="#fff" stroke-width="7" stroke-linecap="round"/><circle cx="1132" cy="338" r="22" fill="#235bd6"/><text x="1125" y="346" fill="#fff" font-size="18" font-weight="700">3</text><text x="1044" y="476" fill="#235bd6" font-size="18" font-weight="700">添加</text></g>
</svg>
