<svg xmlns="http://www.w3.org/2000/svg" viewBox="0 0 1280 720" width="1280" height="720">
  <rect width="1280" height="720" fill="#f5f9ff"/><rect x="54" y="42" width="1172" height="636" rx="28" fill="#fff" stroke="#dae6f6" stroke-width="2"/>
  <g font-family="Arial, PingFang SC, sans-serif"><text x="96" y="108" fill="#17335c" font-size="32" font-weight="700">Chatbox · 获取并选择模型</text><text x="96" y="147" fill="#60728d" font-size="19">先获取列表，再添加目标模型，最后保存提供方</text>
  <rect x="106" y="196" width="1068" height="398" rx="24" fill="#f9fbff" stroke="#bdd0ec"/><text x="146" y="250" fill="#17335c" font-size="23" font-weight="700">模型列表</text><rect x="932" y="216" width="190" height="50" rx="25" fill="#235bd6"/><text x="990" y="248" fill="#fff" font-size="18" font-weight="700">获取模型</text><circle cx="1114" cy="198" r="22" fill="#235bd6"/><text x="1107" y="206" fill="#fff" font-size="18" font-weight="700">1</text>
  <rect x="146" y="292" width="936" height="72" rx="14" fill="#eef5ff" stroke="#235bd6" stroke-width="2"/><text x="180" y="336" fill="#17335c" font-size="20" font-weight="700">当前可用模型</text><text x="468" y="336" fill="#60728d" font-size="17">文本模型</text><circle cx="1032" cy="328" r="23" fill="#235bd6"/><path d="M1032 317V339M1021 328H1043" stroke="#fff" stroke-width="4" stroke-linecap="round"/><circle cx="1080" cy="288" r="22" fill="#235bd6"/><text x="1073" y="296" fill="#fff" font-size="18" font-weight="700">2</text>
  <rect x="146" y="382" width="936" height="72" rx="14" fill="#fff" stroke="#d6e1f0"/><text x="180" y="426" fill="#435873" font-size="20">其他可用模型</text><text x="468" y="426" fill="#60728d" font-size="17">以当前列表为准</text><circle cx="1032" cy="418" r="23" fill="#fff" stroke="#9db5d8" stroke-width="2"/><path d="M1032 407V429M1021 418H1043" stroke="#6f8ebc" stroke-width="4" stroke-linecap="round"/>
  <rect x="812" y="502" width="270" height="58" rx="29" fill="#235bd6"/><text x="904" y="539" fill="#fff" font-size="20" font-weight="700">保存</text><circle cx="1080" cy="502" r="22" fill="#235bd6"/><text x="1073" y="510" fill="#fff" font-size="18" font-weight="700">3</text><rect x="146" y="502" width="510" height="58" rx="14" fill="#e9f5ef"/><circle cx="182" cy="531" r="14" fill="#1a9d68"/><path d="M175 531L181 537L190 525" fill="none" stroke="#fff" stroke-width="3"/><text x="216" y="538" fill="#287b5d" font-size="18">已添加 1 个模型</text></g>
</svg>
