<svg xmlns="http://www.w3.org/2000/svg" viewBox="0 0 1280 720" width="1280" height="720">
  <rect width="1280" height="720" fill="#f5f9ff"/><rect x="52" y="42" width="1176" height="636" rx="28" fill="#fff" stroke="#dae5f5" stroke-width="2"/>
  <g font-family="Arial, PingFang SC, sans-serif"><text x="94" y="108" fill="#17335c" font-size="32" font-weight="700">Cherry Studio · 添加模型服务</text><text x="94" y="147" fill="#60728d" font-size="19">兼容服务配置示意，不展示真实账户数据</text>
  <rect x="94" y="186" width="1092" height="420" rx="22" fill="#f9fbff" stroke="#bfd0e9"/><rect x="94" y="186" width="236" height="420" rx="22" fill="#eef5ff"/><text x="130" y="244" fill="#17335c" font-size="22" font-weight="700">设置</text><rect x="118" y="278" width="188" height="58" rx="13" fill="#235bd6"/><text x="154" y="314" fill="#fff" font-size="18" font-weight="700">模型服务</text><text x="142" y="382" fill="#60728d" font-size="18">通用设置</text><text x="142" y="430" fill="#60728d" font-size="18">数据设置</text>
  <circle cx="376" cy="244" r="22" fill="#235bd6"/><text x="369" y="252" fill="#fff" font-size="18" font-weight="700">1</text><text x="414" y="252" fill="#17335c" font-size="22" font-weight="700">选择兼容服务</text><rect x="414" y="278" width="702" height="54" rx="11" fill="#fff" stroke="#9fb7da"/><text x="442" y="312" fill="#435873" font-size="18">OpenAI-compatible / New API</text>
  <circle cx="376" cy="378" r="22" fill="#235bd6"/><text x="369" y="386" fill="#fff" font-size="18" font-weight="700">2</text><text x="414" y="386" fill="#17335c" font-size="22" font-weight="700">填写连接信息</text><rect x="414" y="412" width="336" height="58" rx="11" fill="#fff" stroke="#235bd6" stroke-width="2"/><text x="440" y="448" fill="#60728d" font-size="17">API 地址</text><rect x="780" y="412" width="336" height="58" rx="11" fill="#fff" stroke="#235bd6" stroke-width="2"/><text x="806" y="448" fill="#60728d" font-size="17">API Key ••••••••</text>
  <rect x="870" y="510" width="246" height="58" rx="29" fill="#235bd6"/><text x="938" y="547" fill="#fff" font-size="20" font-weight="700">检查并保存</text></g>
</svg>
