<svg xmlns="http://www.w3.org/2000/svg" viewBox="0 0 1280 720" width="1280" height="720">
  <rect width="1280" height="720" fill="#f5f9ff"/><rect x="52" y="42" width="1176" height="636" rx="28" fill="#fff" stroke="#dae6f6" stroke-width="2"/>
  <g font-family="Arial, PingFang SC, sans-serif"><text x="94" y="108" fill="#17335c" font-size="32" font-weight="700">Cherry Studio · 从绘画入口生成</text><text x="94" y="147" fill="#60728d" font-size="19">确认入口、服务和图像模型后再发送提示词</text>
  <rect x="94" y="186" width="1092" height="420" rx="22" fill="#f9fbff" stroke="#bfd0e9"/><rect x="94" y="186" width="242" height="420" rx="22" fill="#eef5ff"/><circle cx="142" cy="244" r="22" fill="#235bd6"/><text x="135" y="252" fill="#fff" font-size="18" font-weight="700">1</text><text x="180" y="252" fill="#17335c" font-size="22" font-weight="700">新建任务</text><rect x="122" y="290" width="186" height="60" rx="14" fill="#235bd6"/><text x="184" y="328" fill="#fff" font-size="20" font-weight="700">绘画</text><text x="150" y="402" fill="#60728d" font-size="18">对话</text><text x="150" y="452" fill="#60728d" font-size="18">翻译</text>
  <circle cx="388" cy="238" r="22" fill="#235bd6"/><text x="381" y="246" fill="#fff" font-size="18" font-weight="700">2</text><text x="426" y="246" fill="#17335c" font-size="21" font-weight="700">选择图像模型</text><rect x="426" y="270" width="704" height="56" rx="12" fill="#fff" stroke="#235bd6" stroke-width="2"/><text x="452" y="305" fill="#435873" font-size="18">Custom API · gpt-image-2 · 图像生成</text>
  <circle cx="388" cy="378" r="22" fill="#235bd6"/><text x="381" y="386" fill="#fff" font-size="18" font-weight="700">3</text><text x="426" y="386" fill="#17335c" font-size="21" font-weight="700">输入提示词</text><rect x="426" y="410" width="704" height="104" rx="14" fill="#fff" stroke="#c2d2e8"/><text x="452" y="451" fill="#60728d" font-size="17">一张简洁的蓝色几何海报，白色背景……</text><rect x="970" y="458" width="128" height="42" rx="21" fill="#235bd6"/><text x="1016" y="485" fill="#fff" font-size="17" font-weight="700">发送</text>
  <rect x="426" y="542" width="704" height="36" rx="18" fill="#e9f5ef"/><text x="622" y="566" fill="#287b5d" font-size="16">等待结果完整显示后再开始下一次生成</text></g>
</svg>
