<svg xmlns="http://www.w3.org/2000/svg" viewBox="0 0 1280 720" width="1280" height="720">
  <rect width="1280" height="720" fill="#f5f9ff"/><rect x="62" y="48" width="1156" height="624" rx="26" fill="#fff" stroke="#d8e4f6" stroke-width="2"/>
  <g font-family="Arial, PingFang SC, sans-serif"><text x="102" y="112" fill="#17335c" font-size="32" font-weight="700">首次打开 Codex：只做初始化</text><text x="102" y="152" fill="#61728c" font-size="19">先让客户端创建用户配置目录，再完全退出</text>
  <rect x="102" y="198" width="760" height="390" rx="20" fill="#f9fbff" stroke="#b9cdec"/><rect x="102" y="198" width="760" height="58" rx="20" fill="#eaf2ff"/><circle cx="140" cy="227" r="8" fill="#9ab5df"/><circle cx="167" cy="227" r="8" fill="#9ab5df"/><circle cx="194" cy="227" r="8" fill="#9ab5df"/><text x="390" y="234" fill="#435873" font-size="18">Codex</text>
  <rect x="135" y="292" width="170" height="258" rx="14" fill="#eef5ff"/><rect x="166" y="329" width="108" height="18" rx="9" fill="#8ba9d8"/><rect x="166" y="371" width="82" height="14" rx="7" fill="#c2d2e8"/><rect x="166" y="406" width="104" height="14" rx="7" fill="#c2d2e8"/>
  <text x="360" y="347" fill="#17335c" font-size="25" font-weight="700">欢迎</text><text x="360" y="390" fill="#60728d" font-size="18">用户目录已准备</text><rect x="360" y="432" width="190" height="50" rx="25" fill="#235bd6"/><text x="410" y="464" fill="#fff" font-size="18">完成初始化</text>
  <rect x="904" y="228" width="246" height="112" rx="18" fill="#eef5ff" stroke="#b9cff6"/><circle cx="944" cy="267" r="21" fill="#235bd6"/><text x="937" y="275" fill="#fff" font-size="19" font-weight="700">1</text><text x="980" y="273" fill="#17335c" font-size="20" font-weight="700">打开一次</text><text x="980" y="307" fill="#60728d" font-size="16">看到初始界面</text>
  <path d="M1028 352V397" stroke="#7ca3ed" stroke-width="5" stroke-linecap="round"/><path d="M1014 385L1028 401L1042 385" fill="none" stroke="#7ca3ed" stroke-width="5"/>
  <rect x="904" y="414" width="246" height="112" rx="18" fill="#eef5ff" stroke="#b9cff6"/><circle cx="944" cy="453" r="21" fill="#235bd6"/><text x="937" y="461" fill="#fff" font-size="19" font-weight="700">2</text><text x="980" y="459" fill="#17335c" font-size="20" font-weight="700">完全退出</text><text x="980" y="493" fill="#60728d" font-size="16">再编辑配置</text></g>
</svg>
