<svg xmlns="http://www.w3.org/2000/svg" viewBox="0 0 1280 720" width="1280" height="720">
  <rect width="1280" height="720" fill="#f7faff"/>
  <rect x="48" y="42" width="1184" height="636" rx="28" fill="#ffffff" stroke="#dce7f8" stroke-width="2"/>
  <text x="96" y="118" fill="#17335c" font-family="Arial, PingFang SC, sans-serif" font-size="34" font-weight="700">API 客户端配置 · 完整流程</text>
  <text x="96" y="158" fill="#60728d" font-family="Arial, PingFang SC, sans-serif" font-size="20">三步完成，不在截图中保存任何真实账户或密钥数据</text>
  <path d="M390 370H452M790 370H852" stroke="#7ca3ed" stroke-width="8" stroke-linecap="round"/>
  <path d="M438 354L458 370L438 386M838 354L858 370L838 386" fill="none" stroke="#7ca3ed" stroke-width="6" stroke-linecap="round" stroke-linejoin="round"/>
  <g font-family="Arial, PingFang SC, sans-serif">
    <rect x="96" y="220" width="294" height="320" rx="24" fill="#eef5ff" stroke="#b9cff6" stroke-width="2"/>
    <circle cx="146" cy="270" r="25" fill="#235bd6"/><text x="138" y="279" fill="#fff" font-size="24" font-weight="700">1</text>
    <text x="190" y="280" fill="#17335c" font-size="26" font-weight="700">准备连接信息</text>
    <rect x="126" y="326" width="234" height="54" rx="12" fill="#fff" stroke="#d2dff2"/><text x="148" y="360" fill="#435873" font-size="20">API 主机</text>
    <rect x="126" y="397" width="234" height="54" rx="12" fill="#fff" stroke="#d2dff2"/><text x="148" y="431" fill="#435873" font-size="20">API Key</text>
    <rect x="126" y="468" width="234" height="42" rx="12" fill="#dbe9ff"/><text x="148" y="496" fill="#235bd6" font-size="18">分组 + 模型</text>
    <rect x="486" y="220" width="294" height="320" rx="24" fill="#eef5ff" stroke="#b9cff6" stroke-width="2"/>
    <circle cx="536" cy="270" r="25" fill="#235bd6"/><text x="528" y="279" fill="#fff" font-size="24" font-weight="700">2</text>
    <text x="580" y="280" fill="#17335c" font-size="26" font-weight="700">配置一个客户端</text>
    <rect x="516" y="326" width="234" height="148" rx="16" fill="#fff" stroke="#d2dff2"/>
    <path d="M552 365H714M552 400H684M552 435H722" stroke="#8aa0bb" stroke-width="12" stroke-linecap="round"/>
    <rect x="516" y="492" width="150" height="42" rx="21" fill="#235bd6"/><text x="546" y="520" fill="#fff" font-size="18">保存配置</text>
    <rect x="876" y="220" width="294" height="320" rx="24" fill="#eef5ff" stroke="#b9cff6" stroke-width="2"/>
    <circle cx="926" cy="270" r="25" fill="#235bd6"/><text x="918" y="279" fill="#fff" font-size="24" font-weight="700">3</text>
    <text x="970" y="280" fill="#17335c" font-size="26" font-weight="700">最小验证</text>
    <rect x="906" y="326" width="234" height="126" rx="16" fill="#fff" stroke="#d2dff2"/>
    <rect x="930" y="350" width="116" height="32" rx="16" fill="#dbe9ff"/><text x="949" y="372" fill="#235bd6" font-size="16">回复 OK</text>
    <circle cx="1090" cy="414" r="18" fill="#1a9d68"/><path d="M1081 414L1088 421L1101 406" fill="none" stroke="#fff" stroke-width="4" stroke-linecap="round"/>
    <text x="906" y="500" fill="#1a9d68" font-size="20" font-weight="700">连接正常</text>
  </g>
  <text x="96" y="622" fill="#60728d" font-family="Arial, PingFang SC, sans-serif" font-size="18">确定性界面示意 · 2026-07-13</text>
</svg>
