<svg xmlns="http://www.w3.org/2000/svg" viewBox="0 0 1280 720" width="1280" height="720">
  <rect width="1280" height="720" fill="#f5f9ff"/><rect x="52" y="40" width="1176" height="640" rx="28" fill="#fff" stroke="#dbe6f6" stroke-width="2"/>
  <g font-family="Arial, PingFang SC, sans-serif"><text x="94" y="104" fill="#17335c" font-size="32" font-weight="700">OpenCode · provider 与 credential 分工</text><text x="94" y="142" fill="#60728d" font-size="19">配置结构写入 opencode.json，密钥由 /connect 单独保存</text>
  <rect x="94" y="180" width="720" height="430" rx="20" fill="#f8fbff" stroke="#bfd0e9"/><rect x="94" y="180" width="720" height="54" rx="20" fill="#eaf2ff"/><text x="126" y="214" fill="#435873" font-size="17">opencode.json</text>
  <text x="128" y="274" fill="#435873" font-size="18">{ "provider": { "custom": {</text><text x="160" y="318" fill="#435873" font-size="18">"options": {</text>
  <rect x="182" y="338" width="570" height="54" rx="10" fill="#e6efff" stroke="#235bd6" stroke-width="2"/><text x="204" y="372" fill="#17335c" font-size="18">"baseURL": "&lt;弹窗完整地址&gt;"</text>
  <text x="160" y="430" fill="#435873" font-size="18">},</text><rect x="182" y="462" width="570" height="54" rx="10" fill="#e6efff" stroke="#235bd6" stroke-width="2"/><text x="204" y="496" fill="#17335c" font-size="18">"models": { "&lt;当前模型 ID&gt;": { ... } }</text><text x="128" y="550" fill="#435873" font-size="18">} } }</text>
  <rect x="858" y="206" width="310" height="104" rx="18" fill="#eef5ff" stroke="#bcd0f2"/><circle cx="898" cy="246" r="21" fill="#235bd6"/><text x="891" y="254" fill="#fff" font-size="18" font-weight="700">1</text><text x="936" y="252" fill="#17335c" font-size="20" font-weight="700">baseURL</text><text x="936" y="283" fill="#60728d" font-size="16">注意大小写和 /v1</text>
  <rect x="858" y="336" width="310" height="104" rx="18" fill="#eef5ff" stroke="#bcd0f2"/><circle cx="898" cy="376" r="21" fill="#235bd6"/><text x="891" y="384" fill="#fff" font-size="18" font-weight="700">2</text><text x="936" y="382" fill="#17335c" font-size="20" font-weight="700">credential</text><text x="936" y="413" fill="#60728d" font-size="16">通过 /connect 保存</text>
  <rect x="858" y="466" width="310" height="104" rx="18" fill="#eef5ff" stroke="#bcd0f2"/><circle cx="898" cy="506" r="21" fill="#235bd6"/><text x="891" y="514" fill="#fff" font-size="18" font-weight="700">3</text><text x="936" y="512" fill="#17335c" font-size="20" font-weight="700">模型选择</text><text x="936" y="543" fill="#60728d" font-size="16">使用 /models 命令</text></g>
</svg>
