<svg xmlns="http://www.w3.org/2000/svg" viewBox="0 0 1280 720" width="1280" height="720">
  <rect width="1280" height="720" fill="#f6f9ff"/><rect x="54" y="44" width="1172" height="632" rx="28" fill="#fff" stroke="#dbe6f5" stroke-width="2"/>
  <g font-family="Arial, PingFang SC, sans-serif"><text x="96" y="110" fill="#17335c" font-size="32" font-weight="700">OpenClaw：先选择运行位置</text><text x="96" y="149" fill="#60728d" font-size="19">在线面板与本地客户端是两条独立路径</text>
  <rect x="96" y="204" width="486" height="362" rx="24" fill="#eef5ff" stroke="#235bd6" stroke-width="3"/><circle cx="144" cy="252" r="24" fill="#235bd6"/><text x="136" y="261" fill="#fff" font-size="21" font-weight="700">A</text><text x="188" y="260" fill="#17335c" font-size="25" font-weight="700">腾讯云在线模式</text><path d="M180 350C180 311 217 287 252 302C275 268 330 278 339 318C377 318 398 345 398 374H180Z" fill="#d9e7ff" stroke="#7fa4e5" stroke-width="3"/><text x="144" y="438" fill="#435873" font-size="19">入口：实例控制台 → 模型配置</text><rect x="144" y="472" width="390" height="54" rx="12" fill="#fff"/><text x="168" y="506" fill="#60728d" font-size="17">API 类型：按在线面板要求</text>
  <text x="620" y="389" fill="#8aa0bb" font-size="24" font-weight="700">或</text>
  <rect x="698" y="204" width="484" height="362" rx="24" fill="#eef5ff" stroke="#9fb7db" stroke-width="2"/><circle cx="746" cy="252" r="24" fill="#6f8ebc"/><text x="738" y="261" fill="#fff" font-size="21" font-weight="700">B</text><text x="790" y="260" fill="#17335c" font-size="25" font-weight="700">本地模式</text><rect x="770" y="302" width="340" height="112" rx="16" fill="#fff" stroke="#bfd0e8"/><rect x="804" y="332" width="90" height="56" rx="8" fill="#dbe8fc"/><path d="M818 402H1072" stroke="#7f9fcf" stroke-width="6" stroke-linecap="round"/><text x="924" y="368" fill="#435873" font-size="18">openclaw.json</text><text x="746" y="438" fill="#435873" font-size="19">入口：当前用户的配置目录</text><rect x="746" y="472" width="388" height="54" rx="12" fill="#fff"/><text x="770" y="506" fill="#60728d" font-size="17">API 类型：按本地版本要求</text>
  <rect x="376" y="598" width="528" height="46" rx="23" fill="#dfeaff"/><text x="474" y="628" fill="#235bd6" font-size="18" font-weight="700">只配置所选路径 · 保存后做模型测试</text></g>
</svg>
