<svg xmlns="http://www.w3.org/2000/svg" viewBox="0 0 1280 720" width="1280" height="720">
  <rect width="1280" height="720" fill="#f5f9ff"/><rect x="48" y="40" width="1184" height="640" rx="28" fill="#fff" stroke="#dbe6f6" stroke-width="2"/>
  <g font-family="Arial, PingFang SC, sans-serif"><text x="92" y="104" fill="#17335c" font-size="32" font-weight="700">统一排错 · 先按症状分类</text><text x="92" y="142" fill="#60728d" font-size="19">记录完整错误文字，不发送真实密钥或账户截图</text>
  <rect x="92" y="184" width="1096" height="92" rx="20" fill="#eef5ff" stroke="#235bd6" stroke-width="2"/><circle cx="144" cy="230" r="25" fill="#235bd6"/><text x="136" y="239" fill="#fff" font-size="21" font-weight="700">1</text><text x="188" y="222" fill="#17335c" font-size="23" font-weight="700">你看到了什么？</text><text x="188" y="252" fill="#60728d" font-size="17">选择最接近的错误或现象</text>
  <path d="M640 276V316M200 316H1080M200 316V346M420 316V346M640 316V346M860 316V346M1080 316V346" fill="none" stroke="#8da9d6" stroke-width="4" stroke-linecap="round"/>
  <g><rect x="92" y="346" width="196" height="154" rx="18" fill="#fff7f2" stroke="#f0c9ac"/><text x="124" y="395" fill="#9a5226" font-size="28" font-weight="700">401</text><text x="124" y="430" fill="#435873" font-size="17">认证失败</text><text x="124" y="468" fill="#60728d" font-size="15">先重新复制 Key</text></g>
  <g><rect x="312" y="346" width="196" height="154" rx="18" fill="#f7f9fd" stroke="#cbd7e8"/><text x="344" y="395" fill="#526b91" font-size="28" font-weight="700">404</text><text x="344" y="430" fill="#435873" font-size="17">地址错误</text><text x="344" y="468" fill="#60728d" font-size="15">先核对路径 /v1</text></g>
  <g><rect x="532" y="346" width="196" height="154" rx="18" fill="#fff9ed" stroke="#ead5a7"/><text x="564" y="395" fill="#9a6a17" font-size="28" font-weight="700">429</text><text x="564" y="430" fill="#435873" font-size="17">请求受限</text><text x="564" y="468" fill="#60728d" font-size="15">停止并发并稍候</text></g>
  <g><rect x="752" y="346" width="196" height="154" rx="18" fill="#f1f7ff" stroke="#bfd2f0"/><text x="784" y="391" fill="#235bd6" font-size="21" font-weight="700">模型错误</text><text x="784" y="430" fill="#435873" font-size="17">not found</text><text x="784" y="468" fill="#60728d" font-size="15">核对模型和分组</text></g>
  <g><rect x="972" y="346" width="196" height="154" rx="18" fill="#f1f7ff" stroke="#bfd2f0"/><text x="1004" y="391" fill="#235bd6" font-size="21" font-weight="700">本地现象</text><text x="1004" y="430" fill="#435873" font-size="17">配置 / 媒体</text><text x="1004" y="468" fill="#60728d" font-size="15">查进程、扩展名</text></g>
  <rect x="306" y="550" width="668" height="64" rx="32" fill="#235bd6"/><circle cx="348" cy="582" r="22" fill="#fff"/><text x="341" y="590" fill="#235bd6" font-size="18" font-weight="700">2</text><text x="394" y="590" fill="#fff" font-size="19" font-weight="700">只执行对应第一检查项，再做一次最小测试</text></g>
</svg>
